{
    "asset" : {
        "generator" : "Khronos glTF Blender I/O v0.9.36",
        "version" : "2.0"
    },
    "scene" : 0,
    "scenes" : [
        {
            "name" : "Scene",
            "nodes" : [
                0,
                9
            ]
        }
    ],
    "nodes" : [
        {
            "name" : "Camera",
            "rotation" : [
                0.483536034822464,
                0.33687159419059753,
                -0.20870360732078552,
                0.7804827094078064
            ],
            "translation" : [
                7.358891487121582,
                4.958309173583984,
                6.925790786743164
            ]
        },
        {
            "name" : "Bone"
        },
        {
            "name" : "Bone.003",
            "rotation" : [
                0.3937826156616211,
                0.24530260264873505,
                -0.2925834655761719,
                0.8361559510231018
            ],
            "translation" : [
                1.9421957260772754e-15,
                0.9286214113235474,
                -5.960464477539063e-08
            ]
        },
        {
            "children" : [
                2
            ],
            "name" : "Bone.002",
            "rotation" : [
                -0.5387290716171265,
                3.0129390893307573e-07,
                -1.9266445860921522e-07,
                0.8424791097640991
            ],
            "scale" : [
                1,
                0.9999999403953552,
                0.9999999403953552
            ],
            "translation" : [
                0,
                0.8429430723190308,
                0
            ]
        },
        {
            "name" : "Bone.005",
            "rotation" : [
                -0.3777836859226227,
                0.2752739489078522,
                0.2933719754219055,
                0.8339285850524902
            ],
            "scale" : [
                1,
                0.9999999403953552,
                1
            ],
            "translation" : [
                -4.963083675318166e-24,
                0.9274048805236816,
                2.9802322387695312e-08
            ]
        },
        {
            "children" : [
                4
            ],
            "name" : "Bone.004",
            "rotation" : [
                0.555921733379364,
                0,
                -1.2343943489234927e-16,
                0.8312347531318665
            ],
            "scale" : [
                1,
                0.9999999403953552,
                1
            ],
            "translation" : [
                0,
                0.8429430723190308,
                0
            ]
        },
        {
            "children" : [
                3,
                5
            ],
            "name" : "Bone.001",
            "rotation" : [
                1,
                -1.1102230246251565e-16,
                -1.1102230246251565e-16,
                1.232595164407831e-32
            ]
        },
        {
            "mesh" : 0,
            "name" : "Cube",
            "skin" : 0
        },
        {
            "mesh" : 1,
            "name" : "Cube.003",
            "skin" : 1
        },
        {
            "children" : [
                7,
                8,
                1,
                6
            ],
            "name" : "Armature"
        }
    ],
    "animations" : [
        {
            "channels" : [
                {
                    "sampler" : 0,
                    "target" : {
                        "node" : 7,
                        "path" : "rotation"
                    }
                }
            ],
            "name" : "Move",
            "samplers" : [
                {
                    "input" : 13,
                    "interpolation" : "CUBICSPLINE",
                    "output" : 14
                }
            ]
        },
        {
            "channels" : [
                {
                    "sampler" : 0,
                    "target" : {
                        "node" : 1,
                        "path" : "rotation"
                    }
                },
                {
                    "sampler" : 1,
                    "target" : {
                        "node" : 6,
                        "path" : "rotation"
                    }
                },
                {
                    "sampler" : 2,
                    "target" : {
                        "node" : 3,
                        "path" : "rotation"
                    }
                },
                {
                    "sampler" : 3,
                    "target" : {
                        "node" : 2,
                        "path" : "rotation"
                    }
                },
                {
                    "sampler" : 4,
                    "target" : {
                        "node" : 5,
                        "path" : "rotation"
                    }
                },
                {
                    "sampler" : 5,
                    "target" : {
                        "node" : 4,
                        "path" : "rotation"
                    }
                }
            ],
            "name" : "Move",
            "samplers" : [
                {
                    "input" : 13,
                    "interpolation" : "CUBICSPLINE",
                    "output" : 15
                },
                {
                    "input" : 13,
                    "interpolation" : "CUBICSPLINE",
                    "output" : 16
                },
                {
                    "input" : 13,
                    "interpolation" : "CUBICSPLINE",
                    "output" : 17
                },
                {
                    "input" : 13,
                    "interpolation" : "CUBICSPLINE",
                    "output" : 18
                },
                {
                    "input" : 13,
                    "interpolation" : "CUBICSPLINE",
                    "output" : 19
                },
                {
                    "input" : 13,
                    "interpolation" : "CUBICSPLINE",
                    "output" : 20
                }
            ]
        }
    ],
    "materials" : [
        {
            "doubleSided" : true,
            "name" : "Material",
            "pbrMetallicRoughness" : {
                "baseColorTexture" : {
                    "index" : 0,
                    "texCoord" : 0
                },
                "metallicFactor" : 0,
                "roughnessFactor" : 0.4000000059604645
            }
        },
        {
            "doubleSided" : true,
            "name" : "Material.004",
            "pbrMetallicRoughness" : {
                "baseColorTexture" : {
                    "index" : 1,
                    "texCoord" : 0
                },
                "metallicFactor" : 0,
                "roughnessFactor" : 0.5
            }
        }
    ],
    "meshes" : [
        {
            "name" : "Cube",
            "primitives" : [
                {
                    "attributes" : {
                        "POSITION" : 0,
                        "NORMAL" : 1,
                        "TEXCOORD_0" : 2,
                        "JOINTS_0" : 3,
                        "WEIGHTS_0" : 4
                    },
                    "indices" : 5,
                    "material" : 0
                }
            ]
        },
        {
            "name" : "Cube.003",
            "primitives" : [
                {
                    "attributes" : {
                        "POSITION" : 7,
                        "NORMAL" : 8,
                        "TEXCOORD_0" : 9,
                        "JOINTS_0" : 10,
                        "WEIGHTS_0" : 11
                    },
                    "indices" : 12,
                    "material" : 1
                }
            ]
        }
    ],
    "textures" : [
        {
            "source" : 0
        },
        {
            "source" : 0
        }
    ],
    "images" : [
        {
            "mimeType" : "image/png",
            "name" : "Untitled",
            "uri" : "Untitled.png"
        }
    ],
    "skins" : [
        {
            "inverseBindMatrices" : 6,
            "joints" : [
                1,
                6,
                3,
                2,
                5,
                4
            ],
            "name" : "Armature"
        },
        {
            "inverseBindMatrices" : 6,
            "joints" : [
                1,
                6,
                3,
                2,
                5,
                4
            ],
            "name" : "Armature"
        }
    ],
    "accessors" : [
        {
            "bufferView" : 0,
            "componentType" : 5126,
            "count" : 24,
            "max" : [
                1,
                2.504547119140625,
                1.0085002183914185
            ],
            "min" : [
                -1,
                0.5045469999313354,
                -0.9914997220039368
            ],
            "type" : "VEC3"
        },
        {
            "bufferView" : 1,
            "componentType" : 5126,
            "count" : 24,
            "type" : "VEC3"
        },
        {
            "bufferView" : 2,
            "componentType" : 5126,
            "count" : 24,
            "type" : "VEC2"
        },
        {
            "bufferView" : 3,
            "componentType" : 5123,
            "count" : 24,
            "type" : "VEC4"
        },
        {
            "bufferView" : 4,
            "componentType" : 5126,
            "count" : 24,
            "type" : "VEC4"
        },
        {
            "bufferView" : 5,
            "componentType" : 5123,
            "count" : 36,
            "type" : "SCALAR"
        },
        {
            "bufferView" : 6,
            "componentType" : 5126,
            "count" : 6,
            "type" : "MAT4"
        },
        {
            "bufferView" : 7,
            "componentType" : 5126,
            "count" : 72,
            "max" : [
                1,
                0.6514891386032104,
                1.899792194366455
            ],
            "min" : [
                -1,
                -3.0400638580322266,
                -1.8816657066345215
            ],
            "type" : "VEC3"
        },
        {
            "bufferView" : 8,
            "componentType" : 5126,
            "count" : 72,
            "type" : "VEC3"
        },
        {
            "bufferView" : 9,
            "componentType" : 5126,
            "count" : 72,
            "type" : "VEC2"
        },
        {
            "bufferView" : 10,
            "componentType" : 5123,
            "count" : 72,
            "type" : "VEC4"
        },
        {
            "bufferView" : 11,
            "componentType" : 5126,
            "count" : 72,
            "type" : "VEC4"
        },
        {
            "bufferView" : 12,
            "componentType" : 5123,
            "count" : 108,
            "type" : "SCALAR"
        },
        {
            "bufferView" : 13,
            "componentType" : 5126,
            "count" : 3,
            "max" : [
                0.7916666666666666
            ],
            "min" : [
                0.041666666666666664
            ],
            "type" : "SCALAR"
        },
        {
            "bufferView" : 14,
            "componentType" : 5126,
            "count" : 9,
            "type" : "VEC4"
        },
        {
            "bufferView" : 15,
            "componentType" : 5126,
            "count" : 9,
            "type" : "VEC4"
        },
        {
            "bufferView" : 16,
            "componentType" : 5126,
            "count" : 9,
            "type" : "VEC4"
        },
        {
            "bufferView" : 17,
            "componentType" : 5126,
            "count" : 9,
            "type" : "VEC4"
        },
        {
            "bufferView" : 18,
            "componentType" : 5126,
            "count" : 9,
            "type" : "VEC4"
        },
        {
            "bufferView" : 19,
            "componentType" : 5126,
            "count" : 9,
            "type" : "VEC4"
        },
        {
            "bufferView" : 20,
            "componentType" : 5126,
            "count" : 9,
            "type" : "VEC4"
        }
    ],
    "bufferViews" : [
        {
            "buffer" : 0,
            "byteLength" : 288,
            "byteOffset" : 0
        },
        {
            "buffer" : 0,
            "byteLength" : 288,
            "byteOffset" : 288
        },
        {
            "buffer" : 0,
            "byteLength" : 192,
            "byteOffset" : 576
        },
        {
            "buffer" : 0,
            "byteLength" : 192,
            "byteOffset" : 768
        },
        {
            "buffer" : 0,
            "byteLength" : 384,
            "byteOffset" : 960
        },
        {
            "buffer" : 0,
            "byteLength" : 72,
            "byteOffset" : 1344
        },
        {
            "buffer" : 0,
            "byteLength" : 384,
            "byteOffset" : 1416
        },
        {
            "buffer" : 0,
            "byteLength" : 864,
            "byteOffset" : 1800
        },
        {
            "buffer" : 0,
            "byteLength" : 864,
            "byteOffset" : 2664
        },
        {
            "buffer" : 0,
            "byteLength" : 576,
            "byteOffset" : 3528
        },
        {
            "buffer" : 0,
            "byteLength" : 576,
            "byteOffset" : 4104
        },
        {
            "buffer" : 0,
            "byteLength" : 1152,
            "byteOffset" : 4680
        },
        {
            "buffer" : 0,
            "byteLength" : 216,
            "byteOffset" : 5832
        },
        {
            "buffer" : 0,
            "byteLength" : 12,
            "byteOffset" : 6048
        },
        {
            "buffer" : 0,
            "byteLength" : 144,
            "byteOffset" : 6060
        },
        {
            "buffer" : 0,
            "byteLength" : 144,
            "byteOffset" : 6204
        },
        {
            "buffer" : 0,
            "byteLength" : 144,
            "byteOffset" : 6348
        },
        {
            "buffer" : 0,
            "byteLength" : 144,
            "byteOffset" : 6492
        },
        {
            "buffer" : 0,
            "byteLength" : 144,
            "byteOffset" : 6636
        },
        {
            "buffer" : 0,
            "byteLength" : 144,
            "byteOffset" : 6780
        },
        {
            "buffer" : 0,
            "byteLength" : 144,
            "byteOffset" : 6924
        }
    ],
    "buffers" : [
        {
            "byteLength" : 7068,
            "uri" : "untitled2.bin"
        }
    ]
}
